PathFileType	4	(x/y/z)	S05_M20_T02
DataRate	CameraRate	NumFrames	NumMarkers	Units	OrigDataRate	OrigDataStartFrame	OrigNumFrames
240	240	10	50	mm	240	205	546
Frame#	Time	Sternum			R.Acromium			L.Acromium			Top.Head			R.ASIS			L.ASIS			R.PSIS			L.PSIS			R.Great.Tro			L.Great.Tro			R.Iliac.Crest			L.Iliac.Crest			V.Sacral			R.Thigh.Upper.Post			R.Thigh.Lower.Ant			R.Thigh.Lower.Post			R.Thigh.Upper.Ant			R.Knee.Lat			R.Knee.Med			R.Shank.Upper.Post			R.Shank.Lower.Ant			R.Shank.Lower.Post			R.Shank.Upper.Ant			R.Ankle.Lat			R.Ankle.Med			R.Heel.Upper			R.Heel.Med			R.Heel.Lat			R.Toe.Lat			R.Toe.Med			R.Toe.Tip			L.Thigh.Upper.Post			L.Thigh.Lower.Ant			L.Thigh.Lower.Post			L.Thigh.Upper.Ant			L.Knee.Lat			L.Shank.Upper.Post			L.Shank.Lower.Ant			L.Shank.Lower.Post			L.Shank.Upper.Ant			L.Ankle.Lat			L.Ankle.Med			L.Heel.Upper			L.Heel.Med			L.Heel.Lat			L.Toe.Lat			L.Toe.Med			L.Toe.Tip			Cervical.Spine			Back			
		X1	Y1	Z1	X2	Y2	Z2	X3	Y3	Z3	X4	Y4	Z4	X5	Y5	Z5	X6	Y6	Z6	X7	Y7	Z7	X8	Y8	Z8	X9	Y9	Z9	X10	Y10	Z10	X11	Y11	Z11	X12	Y12	Z12	X13	Y13	Z13	X14	Y14	Z14	X15	Y15	Z15	X16	Y16	Z16	X17	Y17	Z17	X18	Y18	Z18	X19	Y19	Z19	X20	Y20	Z20	X21	Y21	Z21	X22	Y22	Z22	X23	Y23	Z23	X24	Y24	Z24	X25	Y25	Z25	X26	Y26	Z26	X27	Y27	Z27	X28	Y28	Z28	X29	Y29	Z29	X30	Y30	Z30	X31	Y31	Z31	X32	Y32	Z32	X33	Y33	Z33	X34	Y34	Z34	X35	Y35	Z35	X36	Y36	Z36	X37	Y37	Z37	X38	Y38	Z38	X39	Y39	Z39	X40	Y40	Z40	X41	Y41	Z41	X42	Y42	Z42	X43	Y43	Z43	X44	Y44	Z44	X45	Y45	Z45	X46	Y46	Z46	X47	Y47	Z47	X48	Y48	Z48	X49	Y49	Z49	X50	Y50	Z50	

205	0.85	193.97	1201.5	290.23	109.64	1456.3	462.57	102.77	1492.3	132.82	91.449	1769.3	302.5	139.83	955.82	400.42	117.44	956.77	151.08	-68.399	981.67	335.5	-73.195	990.36	243.96	73.618	883.02	474.66	0.84919	894.28	88.128	53.175	1037.9	453.12	29.328	1042.9	115.92	-85.038	950.88	301.51	218.23	693.95	464.68	285.4	652.41	399.45	241.88	609.58	439.68	257.3	734.28	424.33	272.04	526.02	421.44	270.14	513.64	290.61	259.59	274.23	411.04	334.73	225.12	407.2	275.95	200.74	393.13	318.72	300.04	423.48	334.49	123.82	392.11	348.09	149.06	304.16	282.52	69.88	326.91	296.18	38.24	299.66	291.23	42.862	365.24	453.81	49.167	422.43	492.05	58.214	306.07	547.69	92.216	351.26	-80.456	672.45	95.389	-28.937	575.29	104.33	-100.93	580	108.98	-3.1875	661.37	87.766	-129.42	493.59	112.77	-302.15	376.39	128.63	-288.86	288.92	126.43	-347.02	322.49	151.05	-246.79	343.99	110.53	-410.06	195.71	159.76	-365.77	184	240.95	-480.99	188.82	219.14	-482.32	165.77	254.17	-498.34	164.04	194.44	-370.85	46.729	131.52	-332	52.577	246.77	-283.05	38.99	191.09	53.939	1514.4	304.54	-66.576	1242.9	287.69
206	0.85417	200.08	1202.5	291.51	115.12	1457.4	463.49	109.28	1493.2	133.83	97.252	1770.2	303.33	145.68	957.02	401.53	124.02	957.22	152.13	-62.425	982.47	335.82	-66.919	990.9	244.22	79.442	884.08	475.45	7.7732	894.23	88.796	58.624	1038.9	453.85	36.093	1043.3	116.52	-78.942	951.58	301.86	223.92	694.72	465.36	290.97	652.98	400.14	247.32	610.28	440.36	263.13	734.94	425.04	277.26	526.58	422.11	274.79	514.16	291.32	262.89	274.79	411.99	337.57	225.06	407.58	278.41	201.17	393.91	322.38	300.12	424.09	335.95	123.75	392.39	349.56	148.99	304.5	283.22	70.432	327.09	296.56	38.704	299.76	291.66	43.234	365.36	454.43	47.921	422.47	492.75	56.586	306	548.89	89.729	351.23	-72.055	671.68	95.272	-19.816	574.86	104	-91.848	579.03	108.53	5.3265	661.23	87.919	-119.87	492.82	112.04	-293.87	378.18	128.3	-281.87	290.54	125.93	-339.41	324.91	150.84	-239.05	345	109.97	-404.31	199.23	159.43	-360.03	186.54	240.34	-474.51	194.56	218.92	-476.54	171.76	254.06	-492.74	170.27	194.32	-369.37	48.711	131.49	-330.16	53.685	246.53	-282.17	38.565	190.89	59.769	1515.2	305.31	-60.453	1243.6	287.88
207	0.85833	206.16	1203.5	292.76	120.55	1458.5	464.4	115.74	1494.2	134.82	103.05	1771.1	304.15	151.52	958.22	402.62	130.54	957.71	153.16	-56.467	983.27	336.19	-60.68	991.43	244.53	85.29	885.14	476.23	14.667	894.18	89.476	64.123	1039.9	454.58	42.766	1043.8	117.12	-72.868	952.28	302.26	229.55	695.44	466.02	296.45	653.45	400.81	252.66	610.92	441.05	268.91	735.52	425.71	282.35	527.09	422.77	279.31	514.61	292.02	266.07	275.3	412.91	340.27	224.99	407.95	280.74	201.56	394.66	325.89	300.17	424.69	337.31	123.66	392.64	350.93	148.92	304.83	283.85	70.926	327.26	296.9	39.125	299.87	292.06	43.565	365.47	455	46.773	422.5	493.36	55.083	305.93	549.98	87.395	351.19	-63.521	670.84	95.13	-10.509	574.41	103.66	-82.584	577.98	108.05	13.975	661.07	88.058	-110.08	491.99	111.31	-285.31	379.98	127.97	-274.61	292.17	125.46	-331.53	327.36	150.65	-231.05	346.02	109.44	-398.29	202.85	159.12	-354.04	189.16	239.78	-467.73	200.42	218.75	-470.44	177.87	253.97	-486.83	176.66	194.22	-367.7	50.922	131.47	-328.12	54.981	246.29	-281.15	38.18	190.65	65.556	1516.1	306.05	-54.357	1244.4	288.1
208	0.8625	212.21	1204.6	293.99	125.93	1459.6	465.29	122.12	1495.2	135.8	108.85	1772	304.95	157.37	959.41	403.67	136.99	958.23	154.17	-50.528	984.09	336.61	-54.483	991.96	244.89	91.149	886.18	477	21.525	894.12	90.167	69.671	1040.9	455.3	49.337	1044.3	117.74	-66.821	952.98	302.72	235.12	696.11	466.66	301.83	653.83	401.45	257.9	611.49	441.72	274.62	736.02	426.34	287.33	527.54	423.42	283.72	515	292.71	269.1	275.78	413.77	342.84	224.89	408.29	282.93	201.93	395.36	329.25	300.18	425.25	338.57	123.56	392.86	352.22	148.85	305.13	284.43	71.365	327.42	297.21	39.501	299.96	292.42	43.858	365.56	455.51	45.724	422.53	493.89	53.701	305.84	550.95	85.211	351.15	-54.86	669.96	94.968	-1.0231	573.94	103.32	-73.138	576.88	107.57	22.753	660.91	88.186	-100.04	491.11	110.59	-276.47	381.79	127.66	-267.08	293.83	125.04	-323.38	329.85	150.47	-222.78	347.04	108.94	-392.01	206.58	158.86	-347.8	191.89	239.27	-460.63	206.39	218.61	-464.04	184.09	253.92	-480.59	183.18	194.16	-365.84	53.372	131.46	-325.85	56.48	246.04	-279.98	37.854	190.38	71.301	1516.9	306.79	-48.288	1245.2	288.35
209	0.86667	218.23	1205.7	295.19	131.28	1460.8	466.17	128.44	1496.2	136.76	114.64	1773	305.73	163.2	960.59	404.69	143.38	958.78	155.15	-44.616	984.92	337.07	-48.334	992.47	245.29	97.01	887.21	477.76	28.344	894.04	90.866	75.266	1042	456.01	55.802	1044.7	118.35	-60.808	953.68	303.22	240.63	696.72	467.29	307.11	654.13	402.07	263.03	612	442.38	280.26	736.45	426.93	292.17	527.93	424.05	288.02	515.34	293.38	272	276.23	414.56	345.27	224.76	408.61	285	202.27	396.01	332.44	300.15	425.77	339.75	123.46	393.04	353.42	148.79	305.4	284.95	71.752	327.56	297.49	39.833	300.05	292.74	44.118	365.65	455.97	44.776	422.55	494.36	52.433	305.76	551.82	83.174	351.11	-46.075	669.02	94.79	8.634	573.45	102.99	-63.516	575.73	107.08	31.656	660.73	88.307	-89.779	490.18	109.89	-267.35	383.61	127.36	-259.29	295.51	124.65	-314.95	332.38	150.3	-214.25	348.07	108.47	-385.46	210.42	158.62	-341.33	194.71	238.81	-453.24	212.46	218.51	-457.32	190.39	253.89	-474.05	189.83	194.12	-363.75	56.067	131.45	-323.34	58.192	245.78	-278.63	37.605	190.08	77.006	1517.8	307.51	-42.248	1246	288.64
210	0.87083	224.22	1206.9	296.35	136.59	1461.9	467.03	134.68	1497.2	137.7	120.42	1773.9	306.51	169.02	961.75	405.67	149.68	959.35	156.1	-38.736	985.75	337.57	-42.239	992.97	245.73	102.86	888.21	478.51	35.118	893.96	91.571	80.906	1043	456.71	62.154	1045.2	118.97	-54.834	954.38	303.78	246.06	697.29	467.9	312.29	654.36	402.67	268.07	612.46	443.03	285.83	736.82	427.49	296.88	528.27	424.66	292.22	515.63	294.03	274.75	276.64	415.27	347.56	224.62	408.89	286.93	202.59	396.6	335.48	300.09	426.24	340.84	123.36	393.19	354.55	148.72	305.63	285.42	72.091	327.68	297.74	40.123	300.13	293.04	44.349	365.72	456.37	43.929	422.57	494.76	51.276	305.66	552.61	81.281	351.06	-37.17	668.05	94.604	18.455	572.96	102.66	-53.725	574.54	106.59	40.677	660.56	88.425	-79.291	489.22	109.21	-257.96	385.45	127.07	-251.25	297.23	124.3	-306.26	334.95	150.14	-205.47	349.11	108.05	-378.65	214.37	158.43	-334.61	197.64	238.4	-445.56	218.61	218.44	-450.3	196.77	253.9	-467.19	196.58	194.11	-361.4	59.012	131.44	-320.56	60.125	245.51	-277.06	37.456	189.73	82.674	1518.7	308.21	-36.24	1246.8	288.96
211	0.875	230.18	1208.1	297.46	141.86	1463.2	467.88	140.83	1498.2	138.63	126.18	1775	307.26	174.81	962.88	406.62	155.91	959.94	157.02	-32.894	986.58	338.1	-36.203	993.45	246.2	108.69	889.2	479.26	41.845	893.88	92.28	86.584	1044.1	457.39	68.391	1045.6	119.59	-48.904	955.08	304.37	251.41	697.8	468.49	317.38	654.53	403.24	273	612.86	443.66	291.32	737.13	428.03	301.47	528.56	425.24	296.33	515.89	294.66	277.36	277.03	415.89	349.71	224.45	409.14	288.74	202.89	397.11	338.35	300	426.66	341.85	123.25	393.31	355.6	148.66	305.82	285.84	72.386	327.78	297.96	40.373	300.19	293.3	44.555	365.79	456.73	43.182	422.59	495.12	50.226	305.56	553.31	79.531	351	-28.152	667.04	94.417	28.43	572.47	102.36	-43.774	573.31	106.11	49.811	660.38	88.547	-68.589	488.23	108.56	-248.31	387.31	126.8	-242.96	298.98	124	-297.32	337.57	149.99	-196.43	350.17	107.67	-371.58	218.42	158.26	-327.65	200.68	238.05	-437.61	224.82	218.4	-442.98	203.21	253.92	-460.03	203.41	194.13	-358.77	62.207	131.44	-317.49	62.287	245.23	-275.25	37.432	189.36	88.306	1519.6	308.9	-30.265	1247.7	289.33
212	0.87917	236.1	1209.3	298.53	147.11	1464.4	468.71	146.91	1499.3	139.53	131.92	1776	308	180.57	963.99	407.53	162.06	960.54	157.91	-27.097	987.41	338.66	-30.23	993.91	246.7	114.48	890.18	479.99	48.522	893.78	92.99	92.292	1045.1	458.06	74.514	1046	120.2	-43.023	955.77	305.01	256.69	698.29	469.08	322.37	654.65	403.79	277.84	613.23	444.27	296.72	737.39	428.54	305.94	528.81	425.81	300.36	516.12	295.26	279.84	277.4	416.43	351.73	224.27	409.35	290.43	203.17	397.54	341.05	299.89	427.02	342.78	123.16	393.38	356.59	148.6	305.96	286.22	72.64	327.86	298.16	40.586	300.24	293.54	44.74	365.83	457.05	42.532	422.61	495.42	49.278	305.45	553.93	77.919	350.94	-19.025	666.01	94.238	38.55	571.99	102.09	-33.671	572.06	105.65	59.048	660.22	88.676	-57.685	487.22	107.94	-238.4	389.19	126.54	-234.42	300.77	123.74	-288.13	340.23	149.84	-187.15	351.25	107.34	-364.26	222.58	158.13	-320.46	203.83	237.74	-429.38	231.07	218.39	-435.38	209.69	253.98	-452.58	210.31	194.17	-355.84	65.648	131.45	-314.1	64.679	244.94	-273.16	37.558	188.94	93.906	1520.5	309.58	-24.326	1248.5	289.73
213	0.88333	241.99	1210.4	299.54	152.34	1465.6	469.52	152.91	1500.4	140.4	137.64	1777	308.72	186.3	965.07	408.4	168.13	961.17	158.78	-21.348	988.25	339.25	-24.325	994.35	247.23	120.23	891.14	480.72	55.147	893.68	93.697	98.02	1046.2	458.72	80.521	1046.5	120.8	-37.196	956.45	305.68	261.89	698.73	469.65	327.27	654.74	404.32	282.58	613.56	444.87	302.04	737.62	429.04	310.28	529.02	426.34	304.32	516.34	295.82	282.18	277.75	416.86	353.61	224.08	409.52	292	203.44	397.88	343.59	299.75	427.31	343.63	123.07	393.41	357.52	148.55	306.06	286.55	72.859	327.91	298.33	40.764	300.28	293.75	44.906	365.86	457.33	41.977	422.62	495.69	48.429	305.34	554.49	76.443	350.88	-9.7972	664.97	94.075	48.805	571.53	101.86	-23.426	570.8	105.22	68.382	660.07	88.819	-46.588	486.21	107.37	-228.26	391.09	126.3	-225.64	302.6	123.53	-278.7	342.93	149.69	-177.63	352.36	107.06	-356.67	226.84	158.02	-313.04	207.1	237.48	-420.91	237.36	218.41	-427.5	216.19	254.06	-444.85	217.24	194.24	-352.57	69.331	131.46	-310.39	67.301	244.66	-270.77	37.863	188.5	99.474	1521.4	310.25	-18.426	1249.3	290.18
214	0.8875	247.84	1211.6	300.5	157.56	1466.8	470.3	158.82	1501.4	141.25	143.33	1778	309.43	191.98	966.12	409.25	174.12	961.81	159.61	-15.653	989.08	339.85	-18.491	994.77	247.78	125.93	892.09	481.45	61.719	893.59	94.4	103.76	1047.3	459.36	86.417	1046.9	121.4	-31.427	957.12	306.37	266.99	699.16	470.21	332.07	654.81	404.82	287.23	613.87	445.43	307.28	737.83	429.52	314.51	529.19	426.85	308.22	516.55	296.36	284.38	278.09	417.2	355.37	223.88	409.65	293.46	203.7	398.15	345.98	299.59	427.54	344.42	123	393.41	358.4	148.5	306.12	286.84	73.047	327.94	298.48	40.911	300.31	293.93	45.057	365.88	457.57	41.508	422.64	495.92	47.673	305.23	554.98	75.097	350.82	-0.47575	663.92	93.938	59.181	571.1	101.67	-13.049	569.54	104.82	77.803	659.95	88.98	-35.312	485.21	106.83	-217.88	393.01	126.06	-216.63	304.48	123.36	-269.04	345.67	149.54	-167.89	353.49	106.82	-348.84	231.2	157.95	-305.4	210.49	237.28	-412.2	243.65	218.45	-419.36	222.69	254.16	-436.84	224.18	194.34	-348.93	73.245	131.47	-306.33	70.151	244.37	-268.04	38.374	188.04	105.01	1522.3	310.9	-12.567	1250.1	290.66
